<?xml version="1.0" encoding="utf-8"?>
<!-- Generator: Adobe Illustrator 22.0.0, SVG Export Plug-In . SVG Version: 6.00 Build 0)  -->
<svg version="1.1" id="图层_1" xmlns="http://www.w3.org/2000/svg" xmlns:xlink="http://www.w3.org/1999/xlink" x="0px" y="0px"
	 viewBox="0 0 14 14" style="enable-background:new 0 0 14 14;" xml:space="preserve">
<style type="text/css">
	.st0{fill:#10A3E9;}
	.st1{enable-background:new    ;}
	.st2{fill:#FFFFFF;}
</style>
<title>到校</title>
<desc>Created with Sketch.</desc>
<circle class="st0" cx="7" cy="7" r="7"/>
<g class="st1">
	<path class="st2" d="M2.6,7.9h2.3V6.7h0.8v1.2H8v0.7H5.7v1.7c0.8-0.1,1.6-0.2,2.4-0.3c0,0.2,0,0.5,0,0.8c-1.8,0.2-3.7,0.5-5.6,0.8
		l-0.2-0.8c0.8-0.1,1.7-0.2,2.6-0.3V8.6H2.6V7.9z M6.7,4.1c0.5,0.8,1,1.6,1.5,2.4C7.9,6.7,7.6,6.8,7.4,6.9C7.3,6.7,7.2,6.4,7,6.2
		C5.6,6.4,4.3,6.5,3,6.6L2.7,5.8c0.4-0.2,0.7-0.5,1-1C3.9,4.5,4.2,4,4.4,3.6H2.6V2.8h5.6v0.7H5.3c-0.5,0.8-1,1.6-1.5,2.2
		c0.9-0.1,1.9-0.2,2.8-0.3C6.5,5.2,6.2,4.8,6,4.5L6.7,4.1z M8.7,3.3h0.8v6.2H8.7V3.3z M10.8,2.3h0.8v8.3c0,0.8-0.4,1.2-1.2,1.2
		c-0.3,0-0.7,0-1.4,0c0-0.3-0.1-0.6-0.1-0.9c0.6,0.1,1,0.1,1.3,0.1c0.4,0,0.6-0.2,0.6-0.6V2.3z"/>
</g>
</svg>
