<?xml version="1.0" encoding="utf-8"?>
<!-- Generator: Adobe Illustrator 22.0.0, SVG Export Plug-In . SVG Version: 6.00 Build 0)  -->
<svg version="1.1" id="图层_1" xmlns="http://www.w3.org/2000/svg" xmlns:xlink="http://www.w3.org/1999/xlink" x="0px" y="0px"
	 viewBox="0 0 14 14" style="enable-background:new 0 0 14 14;" xml:space="preserve">
<style type="text/css">
	.st0{fill:#FCC129;}
	.st1{enable-background:new    ;}
	.st2{fill:#FFFFFF;}
</style>
<circle class="st0" cx="7" cy="7" r="7"/>
<title>离校</title>
<desc>Created with Sketch.</desc>
<g class="st1">
	<path class="st2" d="M2.3,3.2h4.2C6.4,2.9,6.3,2.7,6.2,2.5l0.8-0.3c0.2,0.2,0.4,0.6,0.6,1h4.2v0.7H2.3V3.2z M5.7,9.8
		c0.8,0,1.5-0.1,2.3-0.1C7.9,9.6,7.7,9.4,7.5,9.2L8,8.8c0.5,0.5,1,1,1.4,1.5L9,10.8c-0.1-0.1-0.2-0.3-0.4-0.4
		c-0.8,0-1.7,0.1-2.8,0.2c-0.3,0-0.6,0.1-0.9,0.1L4.6,9.9c0.3-0.2,0.5-0.4,0.7-0.6c0.2-0.2,0.3-0.4,0.5-0.7H3.7v3.3H2.9V7.9h3.2
		C6.3,7.6,6.4,7.3,6.6,7H3.3V4.2H4v2.2h6V4.2h0.7v3.2H10V7H7.4C7.3,7.3,7.1,7.6,7,7.9h4.1v2.8c0,0.7-0.3,1-1,1c-0.3,0-0.7,0-1,0
		C9,11.5,9,11.3,8.9,11c0.4,0,0.7,0.1,1,0.1c0.3,0,0.4-0.1,0.4-0.4V8.6H6.6C6.3,9,6,9.4,5.7,9.8z M4.5,4.5L4.8,4
		c0.7,0.2,1.5,0.5,2.4,0.8C7.8,4.5,8.4,4.2,9,3.9l0.3,0.5C8.9,4.6,8.4,4.9,8,5.1c0.5,0.2,1,0.4,1.5,0.6L9.2,6.2
		c-0.7-0.3-1.4-0.5-2-0.8C6.4,5.7,5.6,6,4.7,6.3C4.6,6.1,4.5,5.9,4.4,5.7c0.7-0.2,1.3-0.4,2-0.6C5.7,4.9,5.1,4.7,4.5,4.5z"/>
</g>
</svg>
